# xmcd
#
# Track frame offsets:
#	150
#	14950
#	30809
#	46405
#
# Disc length: 810 seconds
# Revision: 0
# Processed by: cddbd v1.5.2PL0 Copyright (c) Steve Scherf et al.
# Submitted via: dBpowerAMP V12.0
#
DISCID=29032804
DTITLE=Alice Benfer - Cowgirl Rockin'
DYEAR=2016
DGENRE=Country
TTITLE0=Cowgirl Rockin'
TTITLE1=Amamoor Creek
TTITLE2=Beautiful Sound
TTITLE3=A Little Bit Flirty
EXTD=
EXTT0=
EXTT1=
EXTT2=
EXTT3=
PLAYORDER=
